<svg id="Layer_1" data-name="Layer 1" xmlns="http://www.w3.org/2000/svg" viewBox="0 0 698 428"><defs><style>.cls-1{fill:#f2f1d6;stroke:#000;}.cls-1,.cls-2,.cls-6{stroke-miterlimit:10;}.cls-2,.cls-3,.cls-4,.cls-6{fill:none;}.cls-2,.cls-3{stroke:#bbe1f2;}.cls-4{stroke:#9fa7aa;}.cls-5{fill:#5094b5;}.cls-6{stroke:#0765d6;stroke-width:3px;opacity:0.91;}.cls-6,.cls-7,.cls-8{isolation:isolate;}.cls-8{font-size:11px;}.cls-8,.cls-9{font-family:DINCondensed-Bold, DIN Condensed;font-weight:700;}.cls-9{font-size:21px;}.cls-10{letter-spacing:-0.01em;}.cls-11{letter-spacing:-0.02em;}</style></defs><title>new_2_bankruptcy</title><rect class="cls-1" x="0.5" y="0.5" width="697" height="427"/><path class="cls-2" d="M53.5,354.5Z" transform="translate(25.8 2.2)"/><line class="cls-3" x1="79.3" y1="56.7" x2="79.3" y2="356.7"/><path class="cls-3" d="M108.5,354.5" transform="translate(25.8 2.2)"/><path class="cls-3" d="M108.5,54.5" transform="translate(25.8 2.2)"/><path class="cls-3" d="M162.5,354.5" transform="translate(25.8 2.2)"/><path class="cls-3" d="M162.5,54.5" transform="translate(25.8 2.2)"/><path class="cls-3" d="M217.5,354.5" transform="translate(25.8 2.2)"/><path class="cls-3" d="M217.5,54.5" transform="translate(25.8 2.2)"/><path class="cls-3" d="M271.5,354.5" transform="translate(25.8 2.2)"/><path class="cls-3" d="M271.5,54.5" transform="translate(25.8 2.2)"/><path class="cls-3" d="M326.5,354.5" transform="translate(25.8 2.2)"/><path class="cls-3" d="M326.5,54.5" transform="translate(25.8 2.2)"/><path class="cls-3" d="M380.5,354.5" transform="translate(25.8 2.2)"/><path class="cls-3" d="M380.5,54.5" transform="translate(25.8 2.2)"/><path class="cls-3" d="M435.5,354.5" transform="translate(25.8 2.2)"/><path class="cls-3" d="M435.5,54.5" transform="translate(25.8 2.2)"/><path class="cls-3" d="M489.5,354.5" transform="translate(25.8 2.2)"/><path class="cls-3" d="M489.5,54.5" transform="translate(25.8 2.2)"/><path class="cls-3" d="M544.5,354.5" transform="translate(25.8 2.2)"/><path class="cls-3" d="M544.5,54.5" transform="translate(25.8 2.2)"/><path class="cls-3" d="M598.5,354.5" transform="translate(25.8 2.2)"/><path class="cls-3" d="M598.5,54.5" transform="translate(25.8 2.2)"/><path class="cls-4" d="M653.5,354.5" transform="translate(25.8 2.2)"/><path class="cls-4" d="M653.5,54.5" transform="translate(25.8 2.2)"/><path class="cls-2" d="M53.5,54.5Z" transform="translate(25.8 2.2)"/><line class="cls-3" x1="79.3" y1="356.7" x2="679.3" y2="356.7"/><path class="cls-3" d="M653.5,324.5" transform="translate(25.8 2.2)"/><path class="cls-3" d="M53.5,324.5" transform="translate(25.8 2.2)"/><path class="cls-3" d="M653.5,294.5" transform="translate(25.8 2.2)"/><path class="cls-3" d="M53.5,294.5" transform="translate(25.8 2.2)"/><path class="cls-3" d="M653.5,264.5" transform="translate(25.8 2.2)"/><path class="cls-3" d="M53.5,264.5" transform="translate(25.8 2.2)"/><path class="cls-3" d="M653.5,234.5" transform="translate(25.8 2.2)"/><path class="cls-3" d="M53.5,234.5" transform="translate(25.8 2.2)"/><path class="cls-3" d="M653.5,204.5" transform="translate(25.8 2.2)"/><path class="cls-3" d="M53.5,204.5" transform="translate(25.8 2.2)"/><path class="cls-3" d="M653.5,174.5" transform="translate(25.8 2.2)"/><path class="cls-3" d="M53.5,174.5" transform="translate(25.8 2.2)"/><path class="cls-3" d="M653.5,144.5" transform="translate(25.8 2.2)"/><path class="cls-3" d="M53.5,144.5" transform="translate(25.8 2.2)"/><path class="cls-3" d="M653.5,114.5" transform="translate(25.8 2.2)"/><path class="cls-3" d="M53.5,114.5" transform="translate(25.8 2.2)"/><path class="cls-3" d="M653.5,84.5" transform="translate(25.8 2.2)"/><path class="cls-3" d="M53.5,84.5" transform="translate(25.8 2.2)"/><path class="cls-4" d="M653.5,54.5" transform="translate(25.8 2.2)"/><path class="cls-4" d="M53.5,54.5" transform="translate(25.8 2.2)"/><path class="cls-5" d="M105,77.7h5V354h-5Z" transform="translate(25.8 2.2)"/><path class="cls-5" d="M132.3,88.2h5V354h-5Z" transform="translate(25.8 2.2)"/><path class="cls-5" d="M159.6,112.5h5V354h-5Z" transform="translate(25.8 2.2)"/><path class="cls-5" d="M186.9,144h5V354h-5Z" transform="translate(25.8 2.2)"/><path class="cls-5" d="M214.1,181.2h5V354h-5Z" transform="translate(25.8 2.2)"/><path class="cls-5" d="M241.4,199.2h5V354h-5Z" transform="translate(25.8 2.2)"/><path class="cls-5" d="M268.7,183.3h5V354h-5Z" transform="translate(25.8 2.2)"/><path class="cls-5" d="M296,170.4h5V354h-5Z" transform="translate(25.8 2.2)"/><path class="cls-5" d="M323.2,194.4h5V354h-5Z" transform="translate(25.8 2.2)"/><path class="cls-5" d="M350.5,196.8h5V354h-5Z" transform="translate(25.8 2.2)"/><path class="cls-5" d="M377.8,251.4h5V354h-5Z" transform="translate(25.8 2.2)"/><path class="cls-5" d="M405,243.6h5V354h-5Z" transform="translate(25.8 2.2)"/><path class="cls-5" d="M432.3,240h5V354h-5Z" transform="translate(25.8 2.2)"/><path class="cls-5" d="M459.6,211.8h5V354h-5Z" transform="translate(25.8 2.2)"/><path class="cls-5" d="M486.9,217.5h5V354h-5Z" transform="translate(25.8 2.2)"/><path class="cls-5" d="M514.1,222.9h5V354h-5Z" transform="translate(25.8 2.2)"/><path class="cls-5" d="M541.4,253.5h5V354h-5Z" transform="translate(25.8 2.2)"/><path class="cls-5" d="M568.7,292.2h5V354h-5Z" transform="translate(25.8 2.2)"/><path class="cls-5" d="M596,320.7h5V354h-5Z" transform="translate(25.8 2.2)"/><path class="cls-5" d="M623.2,319.8h5V354h-5Z" transform="translate(25.8 2.2)"/><path class="cls-6" d="M657.5,243" transform="translate(25.8 2.2)"/><path class="cls-6" d="M52.5,243" transform="translate(25.8 2.2)"/><path class="cls-2" d="M53.5,354.5Z" transform="translate(25.8 2.2)"/><path class="cls-3" d="M53.5,354.5" transform="translate(25.8 2.2)"/><line class="cls-3" x1="134.3" y1="356.7" x2="134.3" y2="361.7"/><line class="cls-3" x1="188.3" y1="356.7" x2="188.3" y2="361.7"/><line class="cls-3" x1="243.3" y1="356.7" x2="243.3" y2="361.7"/><line class="cls-3" x1="297.3" y1="356.7" x2="297.3" y2="361.7"/><line class="cls-3" x1="352.3" y1="356.7" x2="352.3" y2="361.7"/><line class="cls-3" x1="406.3" y1="356.7" x2="406.3" y2="361.7"/><line class="cls-3" x1="461.3" y1="356.7" x2="461.3" y2="361.7"/><line class="cls-3" x1="515.3" y1="356.7" x2="515.3" y2="361.7"/><line class="cls-3" x1="570.3" y1="356.7" x2="570.3" y2="361.7"/><line class="cls-3" x1="624.3" y1="356.7" x2="624.3" y2="361.7"/><path class="cls-3" d="M653.5,354.5" transform="translate(25.8 2.2)"/><text class="cls-7" x="25.8" y="2.2"/><text class="cls-8" transform="translate(125.6 371.72)">1998</text><text class="cls-8" transform="translate(179.54 371.72)">2000</text><text class="cls-8" transform="translate(236.34 371.72)">2002</text><text class="cls-8" transform="translate(288.63 371.72)">2004</text><text class="cls-8" transform="translate(345.61 371.72)">2006</text><text class="cls-8" transform="translate(399.76 371.72)">2008</text><text class="cls-8" transform="translate(453.48 371.72)">2010</text><text class="cls-8" transform="translate(508.64 371.72)">2012</text><text class="cls-8" transform="translate(563.18 371.72)">2014</text><text class="cls-8" transform="translate(618.34 371.72)">2016</text><text class="cls-7" x="25.8" y="2.2"/><line class="cls-4" x1="79.3" y1="356.7" x2="679.3" y2="356.7"/><path class="cls-2" d="M53.5,54.5Z" transform="translate(25.8 2.2)"/><path class="cls-3" d="M53.5,354.5" transform="translate(25.8 2.2)"/><line class="cls-3" x1="79.3" y1="296.7" x2="74.3" y2="296.7"/><line class="cls-3" x1="79.3" y1="236.7" x2="74.3" y2="236.7"/><line class="cls-3" x1="79.3" y1="176.7" x2="74.3" y2="176.7"/><line class="cls-3" x1="79.3" y1="116.7" x2="74.3" y2="116.7"/><line class="cls-3" x1="79.3" y1="56.7" x2="74.3" y2="56.7"/><text class="cls-8" transform="translate(58.66 299.72)">200</text><text class="cls-8" transform="translate(58.66 239.72)">400</text><text class="cls-8" transform="translate(58.66 179.73)">600</text><text class="cls-8" transform="translate(58.66 119.73)">800</text><text class="cls-8" transform="translate(52.57 59.73)">1,000</text><line class="cls-4" x1="79.3" y1="356.7" x2="79.3" y2="56.7"/><text class="cls-9" transform="translate(277.81 36.67)">Companies de<tspan class="cls-10" x="91.77" y="0">c</tspan><tspan x="99.29" y="0">laring bankrupt</tspan><tspan class="cls-11" x="199.69" y="0">c</tspan><tspan x="207.08" y="0">y</tspan></text><text x="25.8" y="2.2"/></svg>